<svg width="40" height="40" viewBox="0 0 40 40" fill="none" xmlns="http://www.w3.org/2000/svg">
<g clip-path="url(#clip0_7102_206111)">
<path d="M20.0033 15.9568C17.7319 15.9568 15.8997 17.7604 15.8997 19.9963C15.8997 22.2322 17.7319 24.0357 20.0033 24.0357C22.2748 24.0357 24.1069 22.2322 24.1069 19.9963C24.1069 17.7604 22.2748 15.9568 20.0033 15.9568ZM20.0033 22.6225C18.5355 22.6225 17.3355 21.4447 17.3355 19.9963C17.3355 18.5479 18.5319 17.3701 20.0033 17.3701C21.4748 17.3701 22.6712 18.5479 22.6712 19.9963C22.6712 21.4447 21.4712 22.6225 20.0033 22.6225ZM25.2319 15.7916C25.2319 16.3154 24.8033 16.7338 24.2748 16.7338C23.7426 16.7338 23.3176 16.3119 23.3176 15.7916C23.3176 15.2713 23.7462 14.8494 24.2748 14.8494C24.8033 14.8494 25.2319 15.2713 25.2319 15.7916ZM27.9498 16.7479C27.889 15.4857 27.5962 14.3678 26.6569 13.4467C25.7212 12.5256 24.5855 12.2373 23.3033 12.174C21.9819 12.1002 18.0212 12.1002 16.6997 12.174C15.4212 12.2338 14.2855 12.5221 13.3462 13.4432C12.4069 14.3643 12.1176 15.4822 12.0533 16.7443C11.9783 18.0451 11.9783 21.9439 12.0533 23.2447C12.114 24.5068 12.4069 25.6248 13.3462 26.5459C14.2855 27.467 15.4176 27.7553 16.6997 27.8186C18.0212 27.8924 21.9819 27.8924 23.3033 27.8186C24.5855 27.7588 25.7212 27.4705 26.6569 26.5459C27.5926 25.6248 27.8855 24.5068 27.9498 23.2447C28.0248 21.9439 28.0248 18.0486 27.9498 16.7479ZM26.2426 24.6404C25.964 25.3295 25.4248 25.8603 24.7212 26.1381C23.6676 26.5494 21.1676 26.4545 20.0033 26.4545C18.839 26.4545 16.3355 26.5459 15.2855 26.1381C14.5855 25.8639 14.0462 25.333 13.764 24.6404C13.3462 23.6033 13.4426 21.1424 13.4426 19.9963C13.4426 18.8502 13.3497 16.3857 13.764 15.3521C14.0426 14.6631 14.5819 14.1322 15.2855 13.8545C16.339 13.4432 18.839 13.5381 20.0033 13.5381C21.1676 13.5381 23.6712 13.4467 24.7212 13.8545C25.4212 14.1287 25.9605 14.6596 26.2426 15.3521C26.6605 16.3893 26.564 18.8502 26.564 19.9963C26.564 21.1424 26.6605 23.6068 26.2426 24.6404Z" fill="white"/>
</g>
<rect x="0.5" y="0.5" width="39" height="39" rx="19.5" stroke="white"/>
<defs>
<clipPath id="clip0_7102_206111">
<rect width="16" height="18" fill="white" transform="translate(12 11)"/>
</clipPath>
</defs>
</svg>
