<svg width="40" height="41" viewBox="0 0 40 41" fill="none" xmlns="http://www.w3.org/2000/svg">
<g clip-path="url(#clip0_7102_206135)">
<path d="M28.1603 26.0866C27.8578 26.7853 27.4998 27.4285 27.085 28.0198C26.5196 28.826 26.0567 29.384 25.6999 29.6939C25.1468 30.2025 24.5542 30.463 23.9197 30.4778C23.4641 30.4778 22.9148 30.3482 22.2753 30.0852C21.6337 29.8235 21.0441 29.6939 20.505 29.6939C19.9396 29.6939 19.3332 29.8235 18.6845 30.0852C18.0349 30.3482 17.5116 30.4852 17.1115 30.4988C16.503 30.5247 15.8965 30.2568 15.2911 29.6939C14.9047 29.3568 14.4213 28.7791 13.8424 27.9606C13.2211 27.0865 12.7104 26.073 12.3103 24.9175C11.8818 23.6694 11.667 22.4607 11.667 21.2907C11.667 19.9503 11.9566 18.7943 12.5367 17.8256C12.9926 17.0475 13.5992 16.4336 14.3583 15.983C15.1174 15.5324 15.9376 15.3028 16.8209 15.2881C17.3042 15.2881 17.938 15.4376 18.7257 15.7314C19.5111 16.0263 20.0154 16.1758 20.2365 16.1758C20.4018 16.1758 20.962 16.0009 21.9117 15.6524C22.8098 15.3292 23.5678 15.1954 24.1888 15.2481C25.8715 15.3839 27.1356 16.0472 27.9763 17.2423C26.4715 18.1541 25.727 19.4312 25.7419 21.0696C25.7554 22.3457 26.2184 23.4076 27.1282 24.2508C27.5406 24.6422 28.001 24.9446 28.5134 25.1594C28.4023 25.4816 28.285 25.7903 28.1603 26.0866ZM24.3012 10.9006C24.3012 11.9008 23.9357 12.8347 23.2074 13.6992C22.3284 14.7268 21.2652 15.3206 20.1123 15.2269C20.0976 15.1069 20.0891 14.9806 20.0891 14.8479C20.0891 13.8877 20.5071 12.86 21.2494 12.0198C21.62 11.5944 22.0914 11.2407 22.6629 10.9585C23.2333 10.6805 23.7728 10.5268 24.2802 10.5005C24.295 10.6342 24.3012 10.7679 24.3012 10.9006V10.9006Z" fill="white"/>
</g>
<rect x="0.5" y="1" width="39" height="39" rx="19.5" stroke="white"/>
<defs>
<clipPath id="clip0_7102_206135">
<rect width="20" height="20" fill="white" transform="translate(10 10.5)"/>
</clipPath>
</defs>
</svg>
