<svg width="40" height="40" viewBox="0 0 40 40" fill="none" xmlns="http://www.w3.org/2000/svg">
<path d="M26.1755 14.2773C26.0406 14.2075 25.9091 14.131 25.7818 14.0481C25.4115 13.8033 25.072 13.5149 24.7706 13.189C24.0165 12.3261 23.7348 11.4508 23.6311 10.8379H23.6352C23.5486 10.3292 23.5844 10 23.5898 10H20.155V23.2818C20.155 23.4602 20.155 23.6364 20.1475 23.8106C20.1475 23.8322 20.1454 23.8522 20.1442 23.8756C20.1442 23.8851 20.1442 23.8951 20.1421 23.9051C20.1421 23.9076 20.1421 23.9101 20.1421 23.9126C20.1059 24.3892 19.9531 24.8495 19.6972 25.2532C19.4414 25.6568 19.0902 25.9914 18.6747 26.2275C18.2416 26.4739 17.7517 26.6032 17.2535 26.6025C15.6531 26.6025 14.3561 25.2976 14.3561 23.686C14.3561 22.0744 15.6531 20.7695 17.2535 20.7695C17.5564 20.7692 17.8575 20.8169 18.1455 20.9107L18.1497 17.4134C17.2753 17.3004 16.387 17.3699 15.5408 17.6175C14.6946 17.865 13.9089 18.2852 13.2333 18.8516C12.6412 19.366 12.1435 19.9798 11.7625 20.6653C11.6175 20.9153 11.0705 21.9198 11.0042 23.5502C10.9625 24.4755 11.2405 25.4342 11.3729 25.8305V25.8388C11.4563 26.0721 11.7792 26.8683 12.3054 27.5395C12.7297 28.078 13.2311 28.5509 13.7932 28.9432V28.9349L13.8016 28.9432C15.4644 30.0732 17.3081 29.999 17.3081 29.999C17.6272 29.9861 18.6963 29.999 19.9104 29.4236C21.257 28.7857 22.0237 27.8354 22.0237 27.8354C22.5134 27.2675 22.9029 26.6204 23.1753 25.9217C23.4861 25.1047 23.5898 24.1247 23.5898 23.7331V16.6867C23.6315 16.7117 24.1865 17.0788 24.1865 17.0788C24.1865 17.0788 24.986 17.5913 26.2334 17.925C27.1284 18.1625 28.3342 18.2125 28.3342 18.2125V14.8027C27.9117 14.8485 27.0538 14.7152 26.1755 14.2773Z" fill="white"/>
<rect x="0.5" y="0.5" width="39" height="39" rx="19.5" stroke="white"/>
</svg>
